<svg t="1621858602762" class="icon" viewBox="0 0 1024 1024" version="1.1" xmlns="http://www.w3.org/2000/svg" p-id="1189" width="32" height="32"><path d="M0.0512 0.0512m102.4 0l819.0976 0q102.4 0 102.4 102.4l0 819.0976q0 102.4-102.4 102.4l-819.0976 0q-102.4 0-102.4-102.4l0-819.0976q0-102.4 102.4-102.4Z" fill="#707070" opacity=".6" p-id="1190"></path><path d="M692.5312 331.4944a30.592 30.592 0 0 1 0 43.264l-137.2416 137.216 137.216 137.2672a30.592 30.592 0 0 1-43.264 43.264l-137.216-137.216-137.2416 137.216a30.592 30.592 0 1 1-43.264-43.264l137.216-137.2416-137.216-137.216a30.592 30.592 0 1 1 43.264-43.2896l137.216 137.216 137.216-137.216a30.592 30.592 0 0 1 43.2896 0z" fill="#707070" p-id="1191"></path></svg>