<?xml version="1.0" standalone="no"?><!DOCTYPE svg PUBLIC "-//W3C//DTD SVG 1.1//EN" "http://www.w3.org/Graphics/SVG/1.1/DTD/svg11.dtd"><svg t="1619421274251" class="icon" viewBox="0 0 1024 1024" version="1.1" xmlns="http://www.w3.org/2000/svg" p-id="2152" width="16" height="16" xmlns:xlink="http://www.w3.org/1999/xlink"><defs><style type="text/css"></style></defs><path d="M416.47025994 292.41032646c5.79288654 0 11.09485049 2.40552069 15.85679958 7.11837751 65.09633514 64.75268934 130.19267031 129.55447094 195.28900546 194.4053448l3.24008908 3.24008908c4.51648781 4.51648781 7.06928526 11.29121953 6.97110075 18.65505833-0.04909226 7.02019301-2.60188973 13.4512789-6.92200848 17.62412091-65.93090355 63.62356739-131.76362258 127.34531931-197.64543388 190.96888668-4.7619491 4.61467231-10.11300532 6.97110075-15.90589185 6.97110075-9.86754401 0-19.98054932-7.31474656-24.0552068-17.3786596-2.16005939-5.40014845-4.32011878-15.95498411 5.89107104-25.82252812l69.41645393-67.10911777c35.4937031-34.31548889 70.98740621-68.58188554 106.43201705-102.89737443l3.28918134-3.19099681L506.11272448 443.07446866c-35.93553342-35.78825665-71.87106685-71.52742105-107.80660029-107.26658546-7.36383882-7.36383882-9.42571369-16.88773702-5.54742525-26.21526618 4.17284199-10.11300532 13.94220149-17.18229057 23.71156101-17.18229056z m1e-8 0" fill="#8a8a8a" p-id="2153"></path></svg>