<svg t="1621771977884" class="icon" viewBox="0 0 1024 1024" version="1.1" xmlns="http://www.w3.org/2000/svg" p-id="6565" width="32" height="32"><path d="M1023.979055 512.010473c-3.909738 282.742338-229.231675 511.989527-511.989528 511.989527S0 794.768325 0 512.010473 229.231675-2.539003 511.989527 0.020945c283.176753 2.559948 515.588969 251.914362 511.989528 511.989528z" fill="#FFFFFF" p-id="6566"></path><path d="M628.350784 554.319425c23.830785 0 38.787085-19.315969 38.787085-43.162268v-64.262443c0-23.830785-14.9563-43.162269-38.787085-43.162269S589.563698 423.048413 589.563698 446.894714v64.262443c0 23.830785 14.9563 43.162269 38.787086 43.162268zM387.870854 554.319425c23.830785 0 46.544502-19.315969 46.544503-43.162268v-64.262443c0-23.830785-22.713717-43.162269-46.544503-43.162269s-46.544502 19.315969-46.544502 43.162269v64.262443c0 23.830785 22.713717 43.162269 46.544502 43.162268z" fill="#2AC9BF" p-id="6567" data-spm-anchor-id="a313x.7781069.0.i2" class="selected"></path><path d="M729.616106 545.89487a15.483804 15.483804 0 0 0-19.362513 10.317365c-26.825148 87.844991-106.633455 146.847905-198.589877 146.847905a206.843769 206.843769 0 0 1-198.000314-144.93958 15.530349 15.530349 0 0 0-29.586788 9.355445 237.718289 237.718289 0 0 0 227.587102 166.613804c105.702565 0 197.426265-67.84637 228.25424-168.816911a15.483804 15.483804 0 0 0-10.30185-19.378028z" fill="#2AC9BF" p-id="6568"></path><path d="M729.616106 545.89487a15.483804 15.483804 0 0 0-19.362513 10.317365c-26.825148 87.844991-106.633455 146.847905-198.589877 146.847905a206.843769 206.843769 0 0 1-198.000314-144.93958 15.530349 15.530349 0 0 0-29.586788 9.355445 237.718289 237.718289 0 0 0 227.587102 166.613804c105.702565 0 197.426265-67.84637 228.25424-168.816911a15.483804 15.483804 0 0 0-10.30185-19.378028z" fill="#2AC9BF" p-id="6569"></path><path d="M879.551464 483.804504C879.551464 279.303475 714.985618 113.511957 511.989527 113.511957S144.427591 279.303475 144.427591 483.804504c0 175.87616 121.760419 323.018847 284.976474 360.781954-67.349895 18.835009-125.623612 59.91829-166.365567 114.794258a509.352006 509.352006 0 0 0 88.062199 38.678481c39.780035-43.96904 97.076317-71.802653 160.904345-71.802652s121.12431 27.833612 160.904345 71.802652a508.700383 508.700383 0 0 0 88.062199-38.678481 312.592879 312.592879 0 0 0-166.365567-114.794258c163.169511-37.778621 284.945444-184.905794 284.945445-360.781954zM512.486002 837.82199H511.989527c-0.992949 0-1.970384-2.249651-2.963333-2.234136-177.210436-0.543019-320.707137-146.646213-320.707137-325.392617 0-179.103246 144.024206-324.865113 321.700087-324.865113s321.700086 147.220261 321.700086 326.307992C831.71923 689.888046 688.99827 837.82199 512.486002 837.82199z" fill="#2AC9BF" p-id="6570" data-spm-anchor-id="a313x.7781069.0.i3" class=""></path></svg>